<?xml version="1.0" encoding="UTF-8"?><svg xmlns="http://www.w3.org/2000/svg" viewBox="0 0 1080 1080"><defs><style>.e{fill:#08476b;}.f{fill:#43b1e6;}</style></defs><g id="a"><g id="b"><g><path class="f" d="M254.33,296.28H825.67c13.01,0,23.56,10.12,23.56,22.61v63.34c0,12.49-10.55,22.61-23.56,22.61H363.89c-13.01,0-23.56,10.12-23.56,22.61v199.05c0,12.49-10.55,22.61-23.56,22.61h-62.44c-13.01,0-23.56-10.12-23.56-22.61V318.9c0-12.49,10.55-22.61,23.56-22.61Z"/><path class="e" d="M827.05,783.72H252.95c-12.24,0-22.17-9.53-22.17-21.28v-66c0-11.75,9.92-21.28,22.17-21.28h464.56c12.24,0,22.17-9.53,22.17-21.28v-201.71c0-11.75,9.92-21.28,22.17-21.28h65.22c12.24,0,22.17,9.53,22.17,21.28v310.28c0,11.75-9.92,21.28-22.17,21.28Z"/></g></g></g><g id="c"/><g id="d"/></svg>