<svg fill="#2D3055" id="Capa_1" enable-background="new 0 0 512 512" height="512" viewBox="0 0 512 512" width="512" xmlns="http://www.w3.org/2000/svg"><g><path d="m453.934 147.026-27.674-20.652-32.701 11.089c-11.774 3.993-23.015-7.249-19.023-19.023l11.089-32.701-20.652-27.675c-7.435-9.964-.218-24.129 12.214-23.97l34.528.442 19.938-28.193c7.178-10.151 22.88-7.664 26.571 4.208l10.25 32.975 32.974 10.25c11.872 3.69 14.359 19.392 4.208 26.571l-28.193 19.938.441 34.528c.158 12.432-14.006 19.649-23.97 12.213z"/><path d="m314.47 197.53c-5.858-5.858-5.858-15.355 0-21.213l20-20c5.858-5.858 15.355-5.858 21.213 0 5.858 5.858 5.858 15.355 0 21.213l-20 20c-5.858 5.858-15.356 5.858-21.213 0z"/><path d="m125.016 508.993-40.751-30.411-48.154 16.33c-11.774 3.993-23.015-7.248-19.023-19.022l16.329-48.155-30.41-40.752c-7.436-9.964-.218-24.129 12.213-23.97l50.845.65 29.358-41.515c7.178-10.151 22.88-7.664 26.571 4.208l15.094 48.556 48.556 15.094c11.872 3.69 14.359 19.392 4.208 26.571l-41.515 29.359.649 50.844c.159 12.432-14.006 19.649-23.97 12.213z"/><circle cx="240" cy="125" r="15"/><circle cx="390" cy="235" r="15"/><circle cx="50" cy="305" r="15"/><path d="m355.006 508.993-30.507-22.766-36.048 12.225c-11.774 3.993-23.015-7.248-19.023-19.022l12.224-36.05-22.766-30.507c-7.436-9.964-.218-24.129 12.213-23.97l38.062.487 21.979-31.079c7.178-10.151 22.88-7.664 26.571 4.208l11.3 36.35 36.349 11.299c11.872 3.69 14.359 19.392 4.208 26.571l-31.079 21.979.486 38.063c.16 12.431-14.005 19.648-23.969 12.212z"/><g><g><g><path d="m177.237 355.976 118.446-118.446c5.858-5.858 5.858-15.355 0-21.213s-15.355-5.858-21.213 0l-118.447 118.447 5.03 16.182z"/><path d="m507.606 260.274c-5.858-5.858-15.355-5.858-21.213 0l-98.446 98.447 5.031 16.182 16.184 5.03 98.445-98.446c5.857-5.858 5.857-15.355-.001-21.213z"/><path d="m153.281 124.052 98.445-98.446c5.858-5.858 5.858-15.355 0-21.213s-15.355-5.858-21.213 0l-98.446 98.447 5.031 16.182z"/></g><path d="m99.127 253.113-30.507-22.766-36.048 12.225c-11.774 3.993-23.015-7.248-19.023-19.022l12.224-36.05-22.766-30.507c-7.436-9.964-.218-24.129 12.213-23.97l38.062.487 21.979-31.079c7.178-10.151 22.88-7.664 26.571 4.208l11.3 36.35 36.35 11.299c11.872 3.69 14.359 19.392 4.208 26.571l-31.079 21.979.486 38.063c.158 12.43-14.007 19.647-23.97 12.212z"/></g></g></g></svg>